<?xml version="1.0" encoding="utf-8"?>
<!-- Generator: Adobe Illustrator 16.0.0, SVG Export Plug-In . SVG Version: 6.00 Build 0)  -->
<!DOCTYPE svg PUBLIC "-//W3C//DTD SVG 1.1//EN" "http://www.w3.org/Graphics/SVG/1.1/DTD/svg11.dtd">
<svg version="1.1" id="Layer_1" xmlns="http://www.w3.org/2000/svg" xmlns:xlink="http://www.w3.org/1999/xlink" x="0px" y="0px"
	 width="20px" height="20px" viewBox="0 0 500 500" enable-background="new 0 0 500 500" xml:space="preserve">
<g>
	<g>
		<path d="M278.982,431.114H174.26c-43.313,0-112.549-54.411-115.478-56.729c-1.619-1.283-2.563-3.235-2.563-5.3V222.14
			c0-3.736,3.025-6.763,6.761-6.763h23.997c43.053,0,112.903-80.482,146.468-119.16c10.654-12.274,18.354-21.144,22.947-25.223
			c2.119-1.887,5.188-2.245,7.691-0.897c11.252,6.05,18.342,16.094,20.504,29.052c3.875,23.243-8.65,53.151-33.51,80.01
			c-12.709,13.73-16.25,25.118-14.166,29.891c2.07,4.737,10.842,5.446,15.885,5.446h175.291c18.268,0,40.582,15.447,40.582,33.479
			c0,18.059-22.201,32.601-40.58,32.601h-84.615c3.318,5.126,5.197,11.189,5.197,17.578c0,16.173-11.84,29.636-27.305,32.17
			c3.5,5.217,5.49,11.447,5.49,18.016c0,14.185-9.107,26.278-21.783,30.751c4.127,5.487,6.502,12.26,6.502,19.435
			c0,14.64-9.875,27.49-24.049,31.356C286.348,430.275,283.344,431.114,278.982,431.114z M69.743,365.759
			c12.775,9.709,70.174,51.831,104.517,51.831h104.723c2.65,0,4.201-0.521,4.215-0.525c0.242-0.093,0.359-0.125,0.611-0.19
			c8.385-2.207,14.244-9.754,14.244-18.352c0-8.089-5.209-15.306-12.959-17.957c-3.131-1.072-5.027-4.246-4.484-7.507
			c0.543-3.262,3.365-5.654,6.672-5.654h6.98c10.516,0,19.074-8.554,19.074-19.067c0-8.089-5.209-15.301-12.957-17.949
			c-3.129-1.068-5.029-4.245-4.486-7.507s3.363-5.654,6.67-5.654h13.514c10.516,0,19.074-8.557,19.074-19.075
			c0-8.093-5.199-15.301-12.936-17.94c-3.133-1.065-5.029-4.243-4.49-7.505c0.543-3.265,3.365-5.656,6.672-5.656h103.691
			c11.314,0,27.057-9.613,27.057-19.077c0-9.636-15.879-19.956-27.057-19.956H252.797c-18.475,0-25.574-7.37-28.279-13.555
			c-5.002-11.448,1.063-27.666,16.637-44.49c21.707-23.457,33.238-49.741,30.092-68.599c-1.178-7.077-4.363-12.674-9.482-16.704
			c-4.334,4.548-10.627,11.798-18.104,20.412c-51.988,59.907-111.265,123.82-156.683,123.82H69.742L69.743,365.759z"/>
	</g>
	<g>
		<path d="M336.057,280.573h-45.855c-3.734,0-6.762-3.026-6.762-6.761c0-3.736,3.027-6.763,6.762-6.763h45.855
			c3.734,0,6.762,3.026,6.762,6.763C342.818,277.547,339.791,280.573,336.057,280.573z"/>
	</g>
	<g>
		<path d="M302.563,330.751h-25.209c-3.734,0-6.762-3.026-6.762-6.762s3.027-6.763,6.762-6.763h25.209
			c3.736,0,6.764,3.027,6.764,6.763S306.299,330.751,302.563,330.751z"/>
	</g>
	<g>
		<path d="M287.281,380.929h-26.398c-3.734,0-6.762-3.027-6.762-6.762c0-3.736,3.027-6.763,6.762-6.763h26.398
			c3.734,0,6.762,3.026,6.762,6.763C294.043,377.901,291.016,380.929,287.281,380.929z"/>
	</g>
	<g>
		<path d="M53.323,394.7h-5.5c-9.056,0-16.423-7.368-16.423-16.422V215.609c0-9.054,7.367-16.421,16.422-16.421h5.5
			c9.055,0,16.42,7.367,16.42,16.421l0,162.669C69.743,387.332,62.377,394.7,53.323,394.7z M47.823,212.711
			c-1.598,0-2.899,1.302-2.899,2.898v162.669c0,1.598,1.302,2.898,2.9,2.898h5.5c1.597,0,2.896-1.301,2.896-2.898V215.609
			c0-1.596-1.299-2.898-2.897-2.898H47.823z"/>
	</g>
</g>
</svg>
