<?xml version="1.0" encoding="utf-8"?>
<!-- Generator: Adobe Illustrator 16.0.0, SVG Export Plug-In . SVG Version: 6.00 Build 0)  -->
<!DOCTYPE svg PUBLIC "-//W3C//DTD SVG 1.1//EN" "http://www.w3.org/Graphics/SVG/1.1/DTD/svg11.dtd">
<svg version="1.1" id="Layer_1" xmlns="http://www.w3.org/2000/svg" xmlns:xlink="http://www.w3.org/1999/xlink" x="0px" y="0px"
	 width="207px" height="72px" viewBox="0 0 207 72" enable-background="new 0 0 207 72" xml:space="preserve">
<g>
	<path fill="#4B4F50" d="M1.244,38.244H14.92c4.003,0,7.214,1.255,9.169,3.212c1.536,1.535,2.466,3.722,2.466,6.046v0.094
		c0,5.441-4.05,8.561-9.539,9.306l10.748,13.913h-3.071L14.315,57.32H3.665v13.494H1.244V38.244z M14.645,55.134
		c5.443,0,9.488-2.743,9.488-7.444v-0.094c0-4.372-3.44-7.117-9.35-7.117H3.665v14.655H14.645z"/>
	<path fill="#4B4F50" d="M34.414,37.778h2.835v3.118h-2.835V37.778z M34.691,47.084h2.281v23.73h-2.281V47.084z"/>
	<path fill="#4B4F50" d="M43.533,47.084h2.651l8.978,21.168l9.074-21.168h2.56L56.14,70.999h-1.953L43.533,47.084z"/>
	<path fill="#4B4F50" d="M70.004,58.993v-0.094c0-6.885,4.838-12.375,11.259-12.375c6.653,0,10.887,5.398,10.887,12.422
		c0,0.418,0,0.558-0.045,0.933H72.421c0.417,5.907,4.651,9.352,9.304,9.352c3.677,0,6.188-1.631,8.14-3.721l1.584,1.393
		c-2.421,2.604-5.258,4.464-9.815,4.464C75.398,71.368,70.004,66.393,70.004,58.993z M89.682,57.832
		c-0.326-4.793-3.069-9.211-8.514-9.211c-4.698,0-8.327,3.953-8.745,9.211H89.682z"/>
	<path fill="#4B4F50" d="M98.8,47.084h2.281v6.747c1.859-4.235,5.815-7.307,10.515-7.119v2.515h-0.234
		c-5.489,0-10.28,4.139-10.28,11.861v9.725H98.8V47.084z"/>
	<path fill="#4B4F50" d="M114.709,59.043v-0.095c0-7.724,5.818-12.422,11.538-12.422c4.746,0,7.817,2.702,9.772,5.675V36.85h2.281
		v33.965h-2.281v-5.304c-2.047,3.116-5.067,5.859-9.772,5.859C120.527,71.368,114.709,66.766,114.709,59.043z M136.161,58.993
		v-0.094c0-6.095-4.75-10.187-9.681-10.187c-5.166,0-9.303,3.768-9.303,10.142v0.094c0,6.235,4.327,10.236,9.303,10.236
		C131.411,69.185,136.161,65.047,136.161,58.993z"/>
	<path fill="#4B4F50" d="M144.997,63.927v-0.092c0-4.934,4.231-7.726,10.374-7.726c3.304,0,5.585,0.42,7.861,1.026v-1.026
		c0-4.791-2.93-7.26-7.813-7.26c-2.887,0-5.259,0.795-7.448,1.91l-0.837-1.998c2.603-1.211,5.164-2.048,8.425-2.048
		c3.207,0,5.769,0.884,7.489,2.604c1.582,1.584,2.419,3.77,2.419,6.701v14.796h-2.234v-3.954c-1.625,2.282-4.558,4.511-9.073,4.511
		C149.738,71.368,144.997,68.857,144.997,63.927z M163.277,61.928v-2.701c-1.995-0.511-4.65-1.07-8.047-1.07
		c-5.025,0-7.815,2.232-7.815,5.535v0.096c0,3.441,3.254,5.443,6.883,5.443C159.143,69.231,163.277,66.254,163.277,61.928z"/>
	<path fill="#4B4F50" d="M173.975,36.85h2.283v33.965h-2.283V36.85z"/>
	<path fill="#4B4F50" d="M183.607,58.993v-0.094c0-6.885,4.84-12.375,11.263-12.375c6.649,0,10.886,5.398,10.886,12.422
		c0,0.418,0,0.558-0.045,0.933h-19.686c0.42,5.907,4.654,9.352,9.309,9.352c3.676,0,6.188-1.631,8.141-3.721l1.58,1.393
		c-2.416,2.604-5.257,4.464-9.813,4.464C189.004,71.368,183.607,66.393,183.607,58.993z M203.288,57.832
		c-0.327-4.793-3.067-9.211-8.515-9.211c-4.697,0-8.325,3.953-8.746,9.211H203.288z"/>
	<path fill="#36A3C0" d="M38.552,24.928c0,0,24.147-28.064,68.756-12.039c32.418,11.643,56.174,4.282,69.564-8.87
		c0,0-16.141,34.395-71.247,14.386C65.756,3.924,38.862,24.753,38.552,24.928z"/>
	<path fill="#7ECFDC" d="M62.658,8.924c0,0,15.444-15.313,40.874-4.322c18.612,8.042,32.827,4.757,41.217-2.43
		c0,0-10.654,19.091-42.426,5.598C79.407-1.96,62.845,8.834,62.658,8.924z"/>
</g>
</svg>
