<?xml version="1.0" encoding="utf-8"?>
<!-- Generator: Adobe Illustrator 16.0.0, SVG Export Plug-In . SVG Version: 6.00 Build 0)  -->
<!DOCTYPE svg PUBLIC "-//W3C//DTD SVG 1.1//EN" "http://www.w3.org/Graphics/SVG/1.1/DTD/svg11.dtd">
<svg version="1.1" id="Layer_1" xmlns="http://www.w3.org/2000/svg" xmlns:xlink="http://www.w3.org/1999/xlink" x="0px" y="0px"
	 width="396px" height="360px" viewBox="403.065 380.5 396 360" enable-background="new 403.065 380.5 396 360"
	 xml:space="preserve">
<g>
	<path fill="none" stroke="#FFFFFF" stroke-width="9" stroke-miterlimit="10" d="M542.02,552.65l8.48-9.37
		c6.99-7.72,10.54-17.7,10.02-28.101c-0.52-10.399-5.06-19.96-12.77-26.939l-14.31-12.93c-7.181-6.5-16.45-10.07-26.12-10.07
		c-11,0-21.54,4.67-28.91,12.82l-8.48,9.38c-1.08,1.199-2.13,2.51-3.12,3.93l-0.39,0.43c-8,6.84-14.81,23.49-10.86,43.87
		c18.21,94.85,98.11,167.11,194.31,175.74c12.621,1.15,24.5-1.46,33.5-6.99c3.611-2.09,6.791-4.65,9.52-7.67l8.48-9.37
		c14.41-15.939,13.17-40.63-2.76-55.04L684.309,619.4c-7.18-6.49-16.459-10.07-26.129-10.07c-11,0-21.541,4.69-28.91,12.83
		l-8.48,9.37c-3.62,4-6.32,8.609-8.04,13.7l-0.76,2.27l-2.23-0.88C571.95,631.7,541.14,603.42,523,567l-1.2-2.4l2.58-0.77
		C531.16,561.79,537.26,557.92,542.02,552.65z"/>
	<path fill="none" stroke="#FFFFFF" stroke-width="9" stroke-miterlimit="10" d="M589.6,440.24c0,5.01,4.061,9.08,9.091,9.08
		c63.669,0,115.47,51.8,115.47,115.479c0,5.01,4.07,9.08,9.08,9.08s9.08-4.06,9.08-9.08c0-73.689-59.951-133.649-133.641-133.649
		C593.67,431.15,589.6,435.22,589.6,440.24z"/>
	<path fill="none" stroke="#FFFFFF" stroke-width="9" stroke-miterlimit="10" d="M588.14,484.68c0,5.021,4.061,9.08,9.08,9.08
		c39.98,0,72.5,32.521,72.5,72.49c0,5.02,4.07,9.08,9.08,9.08c5.021,0,9.08-4.07,9.08-9.08c0-49.98-40.67-90.65-90.66-90.65
		C592.2,475.61,588.14,479.67,588.14,484.68z"/>
</g>
</svg>
