<svg xmlns="http://www.w3.org/2000/svg" width="25" height="19" fill="none" viewBox="0 0 25 19"><g id="Menu"><g id="Contact-Us" stroke="#fff"><path id="Path-3" d="m21.524 3.525-6.775 6.94c-1.342 1.517-2.792 1.531-4.351.044-1.56-1.487-3.85-3.755-6.873-6.805"/><path id="Path-4" d="m15.584 9.584 6.06 5.94"/><path id="Path-4_2" d="m9.585 9.644-5.94 6.06"/><path id="Rectangle-7" d="m4 1.2 17-.17A3 3 0 0 1 24.028 4l.11 11a3 3 0 0 1-2.97 3.029l-17 .17a3 3 0 0 1-3.03-2.97l-.109-11A3 3 0 0 1 4 1.199Z"/></g></g></svg>